# xmcd CD database file
#
# Track frame offsets:
#	150
#	13647
#	27647
#	41069
#	55027
#	71029
#	83632
#	106557
#	134525
#	161119
#	189823
#	203710
#	215206
#	227918
#	247040
#	259794
#	275798
#	298959
#
# Disc length: 4288 seconds
#
# Revision: 0
# Processed by: cddbd v1.5.2PL0 Copyright (c) Steve Scherf et al.
# Submitted via: CDex 1.51
#
DISCID=1410be12
DTITLE=Charlie Parker - The Quintessence 1947-1954 CD1
DYEAR=2006
DGENRE=Jazz
TTITLE0=Repitition
TTITLE1=Parker's Mood
TTITLE2=Ah Leu Cha
TTITLE3=Steeplechase
TTITLE4=Just Friends
TTITLE5=If I Should Lose You
TTITLE6=Ko-Ko
TTITLE7=Bird of Paradise
TTITLE8=Little Willie Leaps
TTITLE9=This Time the Dream's on Me
TTITLE10=Visa
TTITLE11=Leap Frog
TTITLE12=Relaxin' with Lee
TTITLE13=Afro-Cuban Jazz Suite, Part VI
TTITLE14=Au Private
TTITLE15=KC Blues
TTITLE16=Anthropology
TTITLE17=A Night in Tunisia
EXTD=YEAR: 2006
EXTT0=
EXTT1=
EXTT2=
EXTT3=
EXTT4=
EXTT5=
EXTT6=
EXTT7=
EXTT8=
EXTT9=
EXTT10=
EXTT11=
EXTT12=
EXTT13=
EXTT14=
EXTT15=
EXTT16=
EXTT17=
PLAYORDER=
